<?xml version="1.0" encoding="UTF-8"?>
<!-- Generator: visioncortex VTracer -->
<svg id="svg" version="1.1" xmlns="http://www.w3.org/2000/svg" style="display: block;" viewBox="0 0 1024 1024"><path d="M0 0 C337.92 0 675.84 0 1024 0 C1024 337.92 1024 675.84 1024 1024 C686.08 1024 348.16 1024 0 1024 C0 686.08 0 348.16 0 0 Z " transform="translate(0,0)" style="fill: #FEFEFE;"/><path d="M0 0 C52.42577857 11.39690838 104.89493055 39.67704671 148.28808594 70.7734375 C150.02115871 72.01515992 151.76336114 73.24307656 153.5078125 74.46875 C162.47694651 80.79379681 171.25253408 87.37319988 180 94 C180.87253418 94.65766357 180.87253418 94.65766357 181.76269531 95.32861328 C188.4584151 100.37857722 194.96936801 105.5881515 201.34106445 111.03979492 C204.47139838 113.71706042 207.6379089 116.32813163 210.875 118.875 C220.51775488 126.52324369 229.70015896 134.76824753 238.81640625 143.03125 C240.81737985 144.83534784 242.8395031 146.61007017 244.875 148.375 C249.74406127 152.62206542 254.49540863 156.99633129 259.24278259 161.3782196 C260.38402631 162.4315023 261.52581076 163.48419952 262.66822815 164.53620911 C271.97528935 173.1162764 281.05515557 181.89635896 289.99169922 190.86132812 C292.023262 192.89832421 294.06021836 194.92981951 296.09765625 196.9609375 C297.41959207 198.28353317 298.74121817 199.60643849 300.0625 200.9296875 C300.65740234 201.52256561 301.25230469 202.11544373 301.86523438 202.72628784 C305.54703335 206.42838704 309.02851948 210.25964577 312.44415283 214.20834351 C314.20442707 216.23541071 316.01811612 218.20218261 317.8671875 220.1484375 C318.52066162 220.83856934 319.17413574 221.52870117 319.84741211 222.23974609 C320.51651611 222.94437988 321.18562012 223.64901367 321.875 224.375 C329.26496944 232.19927513 336.60552372 239.99940896 343.375 248.375 C346.61954911 252.38829246 349.98774093 256.22388072 353.5 260 C357.67822186 264.50144686 361.64974798 269.12093677 365.5 273.90625 C367.39904647 276.25632 369.31458696 278.58643622 371.25 280.90625 C378.73149283 289.88694844 385.99098012 298.99173761 392.84521484 308.46337891 C394.07374501 310.14980879 394.07374501 310.14980879 395.95703125 312.13671875 C397 314 397 314 396.5234375 316.23046875 C394.41556054 320.06248097 392.07064268 323.68836494 389.625 327.3125 C389.09479248 328.10213135 388.56458496 328.8917627 388.01831055 329.70532227 C378.09541887 344.35326105 367.27679109 358.35623043 355.3359375 371.41796875 C354.05411249 372.83483553 352.77886287 374.25815926 351.53588867 375.70922852 C346.48061298 381.60171209 341.062314 387.08613937 335.5625 392.5625 C334.65951172 393.46935547 333.75652344 394.37621094 332.82617188 395.31054688 C327.71369724 400.4156175 322.52580831 405.34524816 317 410 C316.33363525 410.56243408 315.66727051 411.12486816 314.98071289 411.7043457 C306.18229718 419.0775704 297.26794418 426.22447945 288 433 C286.87710647 433.83266258 285.7547338 434.66602791 284.6328125 435.5 C270.08717369 446.28263737 255.35547931 456.77182633 239.89453125 466.20703125 C237.20089136 467.72285263 237.20089136 467.72285263 236 469 C244.75975356 469.10862939 253.44549239 468.79455891 262.1875 468.25 C262.87252594 468.2080954 263.55755188 468.1661908 264.26333618 468.12301636 C283.21535909 466.95464734 302.1327432 465.32136123 321.05349731 463.73713684 C327.33324731 463.213871 333.61424581 462.71676697 339.8984375 462.25 C357.81668904 460.91316004 375.68976889 459.29188869 393.5625 457.4375 C394.59214874 457.33140411 395.62179749 457.22530823 396.68264771 457.11599731 C406.66788749 456.08218488 416.62364538 455.0469443 426.52392578 453.36401367 C429.73393569 452.89210234 432.76388027 452.8494828 436 453 C436.67578125 454.78125 436.67578125 454.78125 437 457 C435.85546875 458.78125 435.85546875 458.78125 434.1875 460.5 C430.72664783 464.11704265 428.71813118 467.07459842 428.625 472.1875 C428.78798264 477.4029444 429.97718241 481.70824562 433 486 C437.69131778 490.1569785 443.18880004 492.77443406 449 495 C448.67 495.66 448.34 496.32 448 497 C433.00646998 498.57826632 419.21315844 488.56082971 407 481 C405.10614483 479.83012491 403.21067809 478.66284784 401.3125 477.5 C400.60738281 477.0565625 399.90226562 476.613125 399.17578125 476.15625 C394.04253386 473.42834834 389.49045923 472.75068688 383.71484375 472.76953125 C382.68123215 472.7695388 382.68123215 472.7695388 381.6267395 472.76954651 C379.39680069 472.77303465 377.16734171 472.79191767 374.9375 472.8125 C373.38663857 472.82070572 371.8357759 472.82867947 370.28491211 472.83642578 C354.87583946 472.93711687 339.58203001 473.71490321 324.21875 474.8828125 C293.87454021 477.15448524 263.50192009 479.04624287 233.12802887 480.87187958 C231.18497612 480.9888633 229.24199002 481.10695283 227.29901123 481.22515869 C197.19945899 483.04196697 167.1016159 483.1966709 136.95658112 483.24453354 C133.92708038 483.24990761 130.89759646 483.25802572 127.86810303 483.26651001 C95.70884315 483.34332558 63.8970045 482.51711683 32 478 C30.95231445 477.85304688 29.90462891 477.70609375 28.82519531 477.5546875 C10.02596922 474.86664305 -8.46575577 471.51924707 -26 464 C-25.67 463.34 -25.34 462.68 -25 462 C-23.84685303 462.18284546 -23.84685303 462.18284546 -22.67041016 462.36938477 C-0.96259608 465.76601154 20.77506601 468.14996283 42.6875 469.6875 C43.53056702 469.74807587 44.37363403 469.80865173 45.24224854 469.87106323 C74.46600494 471.94260172 103.68801538 472.16455454 132.96972656 472.13037109 C137.9041666 472.1246506 142.83855294 472.12806923 147.77299118 472.13382339 C167.53720733 472.15324943 187.26162366 472.14391382 207 471 C206.36642578 470.26458984 205.73285156 469.52917969 205.08007812 468.77148438 C187.40967787 448.14840741 172.48924896 424.92321402 158 402 C157.49259277 401.19771973 156.98518555 400.39543945 156.46240234 399.56884766 C148.27561493 386.58093606 140.51238269 373.3879297 133 360 C132.58717773 359.26813477 132.17435547 358.53626953 131.74902344 357.78222656 C128.79443562 352.54224213 125.88504789 347.2785691 123 342 C122.4337793 340.96456055 121.86755859 339.92912109 121.28417969 338.86230469 C113.15620664 323.95460057 105.37316951 308.9480975 98.19824219 293.55224609 C97.10257019 291.21847367 95.98409095 288.89808873 94.8515625 286.58203125 C61.90263212 218.94839933 37.84885029 146.27332257 17.67478943 73.92422485 C16.51062294 69.76433503 15.29714665 65.62147006 14.0592041 61.48297119 C11.76172198 53.79098043 9.73470716 46.09167336 8 38.25 C7.49820303 36.02325544 6.99558579 33.79669559 6.4921875 31.5703125 C6.2456543 30.4762207 5.99912109 29.38212891 5.74511719 28.25488281 C5.02260233 25.09873337 4.27239468 21.9508876 3.5078125 18.8046875 C3.27449219 17.84401367 3.04117187 16.88333984 2.80078125 15.89355469 C2.36149734 14.09388723 1.91896706 12.29500801 1.47265625 10.49707031 C1.27800781 9.69624023 1.08335937 8.89541016 0.8828125 8.0703125 C0.71152832 7.37695801 0.54024414 6.68360352 0.36376953 5.96923828 C0 4 0 4 0 0 Z " transform="translate(299,265)" style="fill: #000000;"/><path d="M0 0 C2.97 0.33 5.94 0.66 9 1 C8.01 1.33 7.02 1.66 6 2 C6 2.66 6 3.32 6 4 C3.69 3.34 1.38 2.68 -1 2 C-0.67 1.34 -0.34 0.68 0 0 Z " transform="translate(274,727)" style="fill: #2D2D2D;"/><path d="M0 0 C0 0.66 0 1.32 0 2 C2.97 2 5.94 2 9 2 C9 2.33 9 2.66 9 3 C4.38 3 -0.24 3 -5 3 C-2 0 -2 0 0 0 Z " transform="translate(538,732)" style="fill: #DDDDDC;"/></svg>